<svg xmlns="http://www.w3.org/2000/svg" shape-rendering="geometricPrecision" text-rendering="geometricPrecision" image-rendering="optimizeQuality" fill-rule="evenodd" clip-rule="evenodd" viewBox="0 0 512.001 512.001"><rect fill="#820AD1" x="-.001" y="-.001" width="512.001" height="512.001" rx="105" ry="105"/><path fill="#fff" fill-rule="nonzero" d="M150.609 182.362c10.432-10.96 24.268-17.361 40.524-17.361 31.669 0 52.666 23.122 56.684 57.761 1.303 11.248 1.29 27.108 1.277 45.477-.002 1.883-.002 3.794-.002 5.728v68.815h-43.551v-50.897s-.089-43.561-.355-51.702c-1.169-35.458-22.161-57.737-54.582-57.761-9.781 10.334-15.022 22.97-15.796 42.291-.106 2.695-.079 12.247-.044 24.835.02 6.522.039 13.86.044 21.482.033 33.175 0 71.759 0 71.759h-43.55v-78.33c0-2.683-.049-5.39-.099-8.109-.099-5.466-.197-10.973.099-16.429.491-9.091 2.064-18.031 6.308-26.334 9.712-19.023 29.612-31.272 50.826-31.272.742 0 1.483.017 2.217.046v.001zm270.133 89.719c.296-5.453.198-10.963.098-16.428-.049-2.718-.098-5.425-.098-8.109v-78.33h-43.55s-.033 38.584 0 71.758c.004 7.622.026 14.959.043 21.482.036 12.59.063 22.142-.043 24.836-.773 19.321-6.014 31.957-15.796 42.292-32.42-.024-53.412-22.305-54.581-57.762-.266-8.14-.378-28.344-.378-51.742v-50.897l-43.519.039v68.815c0 1.934-.003 3.845-.003 5.728-.014 18.37-.025 34.229 1.278 45.478 4.008 34.638 25.005 57.76 56.674 57.76 16.257 0 30.093-6.401 40.526-17.36a60.25 60.25 0 002.215.045c21.214 0 41.115-12.248 50.827-31.271 4.243-8.304 5.815-17.243 6.309-26.336l-.002.002z"/></svg>